<?xml version="1.0" encoding="utf-8"?>
<!-- Generator: Adobe Illustrator 16.0.0, SVG Export Plug-In . SVG Version: 6.00 Build 0)  -->
<!DOCTYPE svg PUBLIC "-//W3C//DTD SVG 1.1//EN" "http://www.w3.org/Graphics/SVG/1.1/DTD/svg11.dtd">
<svg version="1.1" id="Layer_1" xmlns="http://www.w3.org/2000/svg" xmlns:xlink="http://www.w3.org/1999/xlink" x="0px" y="0px"
	 width="30px" height="30px" viewBox="0 0 30 30" enable-background="new 0 0 30 30" xml:space="preserve">
<g id="bicycle-24_1_" transform="translate(0,-24)" inkscape:export-ydpi="89.996864" inkscape:export-xdpi="89.996864" inkscape:label="bicycle-24">
	
		<path id="path7060_1_" inkscape:connector-curvature="0" opacity="0.3" fill="#FFFFFF" stroke="#FFFFFF" stroke-width="2" stroke-linejoin="round" enable-background="new    " d="
		M18.595,29c-0.702,0.096-0.796,1.322-0.117,1.523l2.773,1.094V34h-8.75v-1.25h1.719c0.413,0,0.781-0.369,0.781-0.781
		s-0.368-0.787-0.781-0.781H9.376c-0.078-0.012-0.156-0.012-0.234,0c-0.409,0.061-0.725,0.489-0.664,0.898
		c0.062,0.409,0.489,0.725,0.898,0.664h1.875V34l-1.328,3.906c-0.374-0.09-0.769-0.156-1.172-0.156c-2.761,0-5,2.238-5,5
		s2.239,5,5,5c2.762,0,5-2.238,5-5c0-0.376-0.078-0.742-0.156-1.094h1.406c0.249-0.012,0.488-0.145,0.625-0.352l4.219-6.055h0.156
		h1.25l0.859,2.539c-2.578,0.2-4.609,2.332-4.609,4.961c0,2.762,2.239,5,5,5c2.762,0,5-2.238,5-5c0-2.285-1.538-4.169-3.633-4.766
		L22.501,34v-2.93c0-0.132-0.054-0.264-0.117-0.391c-0.005-0.012,0.005-0.029,0-0.039c-0.019-0.039-0.054-0.079-0.078-0.117
		c-0.039-0.057-0.068-0.107-0.117-0.156c-0.021-0.02-0.055-0.021-0.078-0.039c-0.021-0.019-0.054-0.021-0.078-0.039
		c-0.04-0.023-0.071-0.062-0.117-0.077l-0.039-0.039l-0.547-0.195l-2.305-0.938c-0.08-0.03-0.186-0.035-0.273-0.038
		c-0.059,0-0.098-0.014-0.156,0V29z M12.501,35.25h5.508l-3.398,4.844H12.97c-0.387-0.617-0.874-1.125-1.484-1.523L12.501,35.25z
		 M8.751,39.625c1.727,0,3.125,1.398,3.125,3.125s-1.398,3.125-3.125,3.125c-1.726,0-3.125-1.398-3.125-3.125
		S7.025,39.625,8.751,39.625z M22.501,39.625c1.727,0,3.125,1.398,3.125,3.125s-1.398,3.125-3.125,3.125
		c-1.726,0-3.125-1.398-3.125-3.125c0-0.216,0.037-0.422,0.078-0.625C19.745,40.701,20.991,39.625,22.501,39.625z"/>
	<path id="path5421_1_" inkscape:connector-curvature="0" fill="#008435" d="M18.595,29c-0.702,0.096-0.796,1.322-0.117,1.523
		l2.773,1.094V34h-8.75v-1.25h1.719c0.413,0,0.781-0.369,0.781-0.781s-0.368-0.787-0.781-0.781H9.376
		c-0.078-0.012-0.156-0.012-0.234,0c-0.409,0.061-0.725,0.489-0.664,0.898c0.062,0.409,0.489,0.725,0.898,0.664h1.875V34
		l-1.328,3.906c-0.374-0.09-0.769-0.156-1.172-0.156c-2.761,0-5,2.238-5,5s2.239,5,5,5c2.762,0,5-2.238,5-5
		c0-0.376-0.078-0.742-0.156-1.094h1.406c0.249-0.012,0.488-0.145,0.625-0.352l4.219-6.055h0.156h1.25l0.859,2.539
		c-2.578,0.2-4.609,2.332-4.609,4.961c0,2.762,2.239,5,5,5c2.762,0,5-2.238,5-5c0-2.285-1.538-4.169-3.633-4.766L22.501,34v-2.93
		c0-0.132-0.054-0.264-0.117-0.391c-0.005-0.012,0.005-0.029,0-0.039c-0.019-0.039-0.054-0.079-0.078-0.117
		c-0.039-0.057-0.068-0.107-0.117-0.156c-0.021-0.02-0.055-0.021-0.078-0.039c-0.021-0.019-0.054-0.021-0.078-0.039
		c-0.04-0.023-0.071-0.062-0.117-0.077l-0.039-0.039l-0.547-0.195l-2.305-0.938c-0.08-0.03-0.186-0.035-0.273-0.038
		c-0.059,0-0.098-0.014-0.156,0V29z M12.501,35.25h5.508l-3.398,4.844H12.97c-0.387-0.617-0.874-1.125-1.484-1.523L12.501,35.25z
		 M8.751,39.625c1.727,0,3.125,1.398,3.125,3.125s-1.398,3.125-3.125,3.125c-1.726,0-3.125-1.398-3.125-3.125
		S7.025,39.625,8.751,39.625z M22.501,39.625c1.727,0,3.125,1.398,3.125,3.125s-1.398,3.125-3.125,3.125
		c-1.726,0-3.125-1.398-3.125-3.125c0-0.216,0.037-0.422,0.078-0.625C19.745,40.701,20.991,39.625,22.501,39.625z"/>
	<rect id="rect15814-5_1_" x="0.001" y="24" fill="none" width="30" height="30"/>
</g>
</svg>
