<?xml version="1.0" encoding="utf-8"?>
<!-- Generator: Adobe Illustrator 16.0.0, SVG Export Plug-In . SVG Version: 6.00 Build 0)  -->
<!DOCTYPE svg PUBLIC "-//W3C//DTD SVG 1.1//EN" "http://www.w3.org/Graphics/SVG/1.1/DTD/svg11.dtd">
<svg version="1.1" id="Layer_1" xmlns="http://www.w3.org/2000/svg" xmlns:xlink="http://www.w3.org/1999/xlink" x="0px" y="0px"
	 width="30px" height="30px" viewBox="0 0 30 30" enable-background="new 0 0 30 30" xml:space="preserve">
<g id="cafe-24" transform="translate(78,24)" inkscape:export-ydpi="89.996864" inkscape:export-xdpi="89.996864" inkscape:label="cafe-24">
	<g id="g21590">
		
			<path id="path14796" sodipodi:nodetypes="ssssccccccccccccccsccccccccccccccc" inkscape:connector-curvature="0" opacity="0.3" fill="#FFFFFF" stroke="#FFFFFF" stroke-width="2" stroke-linejoin="round" enable-background="new    " d="
			M-70.999-17.25c-0.692,0-1.25,0.558-1.25,1.25v11.25c0,0.692,0.558,1.25,1.25,1.25h13.75c0.692,0,1.25-0.558,1.25-1.25V-6h0.625
			c0.625,0,0.625-0.625,0.625-0.625V-7.25h1.25c1.25,0,2.5-1.25,2.5-2.5V-11v-2.5c0-0.625-0.625-1.25-1.25-1.25h-3.75V-16
			c0-0.692-0.558-1.25-1.25-1.25H-70.999z M-55.999-13.5h3.125c0.625,0,0.625,0.625,0.625,0.625v3.125c0,0.625-0.625,1.25-1.25,1.25
			h-1.25h-1.25V-13.5z M-74.749-2.25l1.25,1.25l1.25,1.25h16.25l1.25-1.25l1.25-1.25H-74.749z"/>
		
			<path id="rect9826-2-1" sodipodi:nodetypes="ssssccccccccccccccsccccccccccccccc" inkscape:connector-curvature="0" fill="#F46300" d="
			M-70.999-17.25c-0.692,0-1.25,0.558-1.25,1.25v11.25c0,0.692,0.558,1.25,1.25,1.25h13.75c0.692,0,1.25-0.558,1.25-1.25V-6h0.625
			c0.625,0,0.625-0.625,0.625-0.625V-7.25h1.25c1.25,0,2.5-1.25,2.5-2.5V-11v-2.5c0-0.625-0.625-1.25-1.25-1.25h-3.75V-16
			c0-0.692-0.558-1.25-1.25-1.25H-70.999z M-55.999-13.5h3.125c0.625,0,0.625,0.625,0.625,0.625v3.125c0,0.625-0.625,1.25-1.25,1.25
			h-1.25h-1.25V-13.5z M-74.749-2.25l1.25,1.25l1.25,1.25h16.25l1.25-1.25l1.25-1.25H-74.749z"/>
	</g>
	<rect id="rect22288-0" x="-78.499" y="-23.5" fill="none" width="30" height="30"/>
</g>
</svg>
