<?xml version="1.0" encoding="utf-8"?>
<!-- Generator: Adobe Illustrator 16.0.0, SVG Export Plug-In . SVG Version: 6.00 Build 0)  -->
<!DOCTYPE svg PUBLIC "-//W3C//DTD SVG 1.1//EN" "http://www.w3.org/Graphics/SVG/1.1/DTD/svg11.dtd">
<svg version="1.1" id="Layer_1" xmlns="http://www.w3.org/2000/svg" xmlns:xlink="http://www.w3.org/1999/xlink" x="0px" y="0px"
	 width="30px" height="30px" viewBox="0 0 30 30" enable-background="new 0 0 30 30" xml:space="preserve">
<g id="religious-christian-24" transform="translate(0,24)" inkscape:export-ydpi="89.996864" inkscape:export-xdpi="89.996864" inkscape:label="religious-christian-24">
	<g id="g21860">
		
			<path id="path11208" sodipodi:nodetypes="sscccccccccccss" inkscape:connector-curvature="0" opacity="0.3" fill="none" stroke="#FFFFFF" stroke-width="2" stroke-linecap="round" stroke-linejoin="round" enable-background="new    " d="
			M15.126-19.75c-1.038,0-1.875,0.836-1.875,1.875v4.375h-6.25v3.75h6.25v12.5h1.875h1.875v-12.5h6.25v-3.75h-6.25v-4.375
			C17.001-18.914,16.165-19.75,15.126-19.75z"/>
		<path id="rect7432-3" sodipodi:nodetypes="sscccccccccccss" inkscape:connector-curvature="0" fill="#444444" d="M15.126-19.75
			c-1.038,0-1.875,0.836-1.875,1.875v4.375h-6.25v3.75h6.25v12.5h1.875h1.875v-12.5h6.25v-3.75h-6.25v-4.375
			C17.001-18.914,16.165-19.75,15.126-19.75z"/>
	</g>
	<rect id="rect22075-4" x="-0.499" y="-23.5" fill="none" width="30" height="30"/>
</g>
</svg>
