<?xml version="1.0" encoding="utf-8"?>
<!-- Generator: Adobe Illustrator 16.0.0, SVG Export Plug-In . SVG Version: 6.00 Build 0)  -->
<!DOCTYPE svg PUBLIC "-//W3C//DTD SVG 1.1//EN" "http://www.w3.org/Graphics/SVG/1.1/DTD/svg11.dtd">
<svg version="1.1" id="Layer_1" xmlns="http://www.w3.org/2000/svg" xmlns:xlink="http://www.w3.org/1999/xlink" x="0px" y="0px"
	 width="35.688px" height="39.5px" viewBox="0 0 35.688 39.5" enable-background="new 0 0 35.688 39.5" xml:space="preserve">
<path fill="#098342" d="M22.75,2.117v2l2,1v3h-10v-2h2v-1l-2-1h-4v2h2v2l-2.5,4.25c-0.492-0.129-0.969-0.25-1.5-0.25
	c-3.312,0-6,2.688-6,6s2.688,5.999,6,5.999s6-2.687,6-5.999h2l5-8h3l1.062,2.127c-2.855,0.459-5.062,2.889-5.062,5.873
	c0,3.312,2.688,5.999,6,5.999s6-2.687,6-5.999c0-2.879-2.043-5.293-4.75-5.873l-1.25-3.127v-5l-1-1L22.75,2.117z M13.75,10.117h6
	l-4,6h-1.375c-0.422-1.184-1.176-2.23-2.188-2.938L13.75,10.117z M8.75,14.617c1.934,0,3.5,1.566,3.5,3.5s-1.566,3.5-3.5,3.5
	s-3.5-1.566-3.5-3.5S6.816,14.617,8.75,14.617 M26.75,14.617c1.934,0,3.5,1.566,3.5,3.5s-1.566,3.5-3.5,3.5s-3.5-1.566-3.5-3.5
	S24.816,14.617,26.75,14.617"/>
<path fill="#098342" d="M28.854,29.103c-0.824,0-1.57,0.33-2.115,0.863H12.594c-0.895-1.549-2.566-2.592-4.486-2.592
	s-3.59,1.043-4.488,2.592h4.488l2.162,2.594l-2.162,2.594H3.619c0.898,1.549,2.568,2.592,4.488,2.592
	c2.256,0,4.174-1.443,4.885-3.457h13.746c0.545,0.535,1.291,0.865,2.115,0.865c1.67,0,3.025-1.354,3.025-3.025
	S30.523,29.103,28.854,29.103 M28.854,33.856c-0.955,0-1.729-0.771-1.729-1.729c0-0.955,0.773-1.73,1.729-1.73
	s1.729,0.775,1.729,1.73S29.809,33.856,28.854,33.856"/>
</svg>
